# xmcd
#
# Track frame offsets:
#	150
#	15125
#	30225
#	44042
#	59250
#	74610
#	90022
#	105422
#	118682
#	134747
#
# Disc length: 1991 seconds
#
# Revision: 3
# Processed by: cddbd v1.5.2PL0 Copyright (c) Steve Scherf et al.
# Submitted via: audiograbber 1.83.01
#
DISCID=7a07c50a
DTITLE=Tracy Lawrence - Time Marches On
DYEAR=1996
DGENRE=Country
TTITLE0=Is That A Tear
TTITLE1=If You Loved Me
TTITLE2=Time Marches On
TTITLE3=Speed Of A Fool
TTITLE4=I Know That Hurt My Heart
TTITLE5=Somewhere Between The Moon And You
TTITLE6=Different Man
TTITLE7=Excitable Boy
TTITLE8=Stars Over Texas
TTITLE9=From What We Gave
EXTD=
EXTT0=
EXTT1=
EXTT2=
EXTT3=
EXTT4=
EXTT5=
EXTT6=
EXTT7=
EXTT8=
EXTT9=
PLAYORDER=
